<svg width="42" height="57" viewBox="0 0 42 57" fill="none" xmlns="http://www.w3.org/2000/svg">
<path d="M24.0465 50.098L12.4366 38.2334C12.134 37.9245 11.7293 37.7557 11.302 37.7601C10.8748 37.7646 10.4559 37.9419 10.1279 38.2572C9.79982 38.5726 9.58632 39.0032 9.52936 39.4642C9.47239 39.9253 9.57609 40.3835 9.82006 40.7487L10.0153 40.9925L24.5466 55.8426C24.8303 56.1319 25.2044 56.2988 25.6037 56.3141C26.003 56.3295 26.4021 56.1923 26.7316 55.9266L26.9713 55.7019L41.4957 39.1618C41.7991 38.818 41.9784 38.3705 41.9982 37.9075C42.018 37.4446 41.8769 36.9997 41.6027 36.6605C41.3285 36.3214 40.9411 36.1126 40.5169 36.0753C40.0927 36.038 39.6623 36.175 39.3107 36.4591L39.071 36.6876L27.4713 49.8992L27.4713 26.6236C27.4712 19.4215 24.8775 12.6523 20.2387 7.74748C15.5999 2.84261 9.2796 0.18658 2.61435 0.341028L1.78213 0.374534C1.32798 0.400892 0.892427 0.621006 0.571292 0.986461C0.250158 1.35192 0.0697483 1.83277 0.0697483 2.32325C0.0697483 2.81372 0.250158 3.27364 0.571292 3.60181C0.892427 3.92999 1.32798 4.09955 1.78213 4.0732C7.54805 3.73839 13.0891 5.83278 17.2387 9.91544C21.3883 13.9981 23.8227 19.7505 24.0294 25.9615L24.0465 26.8223L24.0465 50.098L12.4366 38.2334L24.0465 50.1017V50.098Z" fill="black"/>
</svg>
