<svg width="42" height="57" viewBox="0 0 42 57" fill="none" xmlns="http://www.w3.org/2000/svg">
<path d="M17.9535 50.098L29.5634 38.2334C29.866 37.9245 30.2707 37.7557 30.698 37.7601C31.1252 37.7646 31.5441 37.9419 31.8721 38.2572C32.2002 38.5726 32.4137 39.0032 32.4706 39.4642C32.5276 39.9253 32.4239 40.3835 32.1799 40.7487L31.9847 40.9925L17.4534 55.8426C17.1697 56.1319 16.7956 56.2988 16.3963 56.3141C15.997 56.3295 15.5979 56.1923 15.2684 55.9266L15.0287 55.7019L0.504256 39.1618C0.200876 38.818 0.0216268 38.3705 0.0018329 37.9075C-0.017961 37.4446 0.123136 36.9997 0.397318 36.6605C0.671501 36.3214 1.05888 36.1126 1.48311 36.0753C1.90735 36.038 2.33766 36.175 2.68926 36.4591L2.92899 36.6876L14.5287 49.8992L14.5287 26.6236C14.5288 19.4215 17.1225 12.6524 21.7613 7.74748C26.4001 2.84261 32.7204 0.186581 39.3857 0.341028L40.2179 0.374535C40.672 0.400892 41.1076 0.62101 41.4287 0.986465C41.7498 1.35192 41.9303 1.83278 41.9303 2.32325C41.9303 2.81372 41.7498 3.27363 41.4287 3.60181C41.1076 3.92999 40.672 4.09955 40.2179 4.0732C34.4519 3.73839 28.9109 5.83278 24.7613 9.91544C20.6117 13.9981 18.1773 19.7505 17.9706 25.9615L17.9535 26.8223L17.9535 50.098L29.5634 38.2334L17.9535 50.1017V50.098Z" fill="black"/>
</svg>
