<svg width="54" height="55" viewBox="0 0 54 55" fill="none" xmlns="http://www.w3.org/2000/svg">
<path d="M26.9927 13.6464C19.3265 13.6464 13.1394 19.8336 13.1394 27.5C13.1394 35.1664 19.3265 41.3536 26.9927 41.3536C34.659 41.3536 40.8461 35.1664 40.8461 27.5C40.8461 19.8336 34.659 13.6464 26.9927 13.6464ZM26.9927 36.5038C22.035 36.5038 17.9891 32.4578 17.9891 27.5C17.9891 22.5422 22.035 18.4962 26.9927 18.4962C31.9505 18.4962 35.9964 22.5422 35.9964 27.5C35.9964 32.4578 31.9505 36.5038 26.9927 36.5038ZM41.4135 9.85032C39.6235 9.85032 38.1781 11.2958 38.1781 13.0858C38.1781 14.8757 39.6235 16.3212 41.4135 16.3212C43.2034 16.3212 44.6488 14.8825 44.6488 13.0858C44.6494 12.6607 44.5661 12.2398 44.4037 11.847C44.2412 11.4542 44.003 11.0973 43.7024 10.7968C43.4019 10.4962 43.045 10.2579 42.6522 10.0955C42.2595 9.93312 41.8385 9.84979 41.4135 9.85032ZM53.997 27.5C53.997 23.7715 54.0308 20.0767 53.8214 16.355C53.612 12.032 52.6258 8.19546 49.4648 5.03432C46.2969 1.86643 42.4672 0.887019 38.1443 0.677628C34.4159 0.468236 30.7212 0.502009 26.9995 0.502009C23.271 0.502009 19.5764 0.468236 15.8547 0.677628C11.5318 0.887019 7.69531 1.87319 4.53424 5.03432C1.36641 8.20221 0.387012 12.032 0.177624 16.355C-0.0317632 20.0835 0.00200907 23.7782 0.00200907 27.5C0.00200907 31.2218 -0.0317632 34.9233 0.177624 38.645C0.387012 42.968 1.37316 46.8045 4.53424 49.9657C7.70207 53.1336 11.5318 54.113 15.8547 54.3224C19.5831 54.5318 23.2778 54.498 26.9995 54.498C30.7279 54.498 34.4226 54.5318 38.1443 54.3224C42.4672 54.113 46.3037 53.1268 49.4648 49.9657C52.6326 46.7978 53.612 42.968 53.8214 38.645C54.0375 34.9233 53.997 31.2285 53.997 27.5ZM48.0531 43.4273C47.56 44.6566 46.9656 45.5752 46.0132 46.5209C45.0609 47.4732 44.149 48.0676 42.9197 48.5607C39.3669 49.9724 30.9306 49.655 26.9927 49.655C23.0549 49.655 14.6119 49.9724 11.059 48.5675C9.82972 48.0744 8.91111 47.48 7.96549 46.5276C7.01312 45.5752 6.41873 44.6633 5.92565 43.434C4.52073 39.8744 4.83819 31.4379 4.83819 27.5C4.83819 23.5621 4.52073 15.1189 5.92565 11.566C6.41873 10.3367 7.01312 9.41803 7.96549 8.47239C8.91787 7.52676 9.82972 6.9256 11.059 6.43252C14.6119 5.02757 23.0549 5.34503 26.9927 5.34503C30.9306 5.34503 39.3736 5.02757 42.9265 6.43252C44.1558 6.9256 45.0744 7.52 46.02 8.47239C46.9724 9.42479 47.5668 10.3367 48.0598 11.566C49.4648 15.1189 49.1473 23.5621 49.1473 27.5C49.1473 31.4379 49.4648 39.8744 48.0531 43.4273Z" fill="#0B0127"/>
</svg>
