<svg width="50" height="49" viewBox="0 0 50 49" fill="none" xmlns="http://www.w3.org/2000/svg">
<path d="M46.6731 32.6431C43.9268 32.3041 41.1997 31.8234 38.503 31.203C37.8446 30.9828 37.1405 30.9364 36.4589 31.0683C35.7774 31.2001 35.1413 31.5057 34.6124 31.9555C33.9251 32.6561 31.9409 34.6152 29.8789 36.6392C22.4911 33.0059 16.5163 27.0238 12.8902 19.6298C14.9003 17.5669 16.7807 15.5948 17.5459 14.9071C17.9955 14.3779 18.3009 13.7416 18.4327 13.0598C18.5645 12.3779 18.5181 11.6735 18.298 11.0148C17.6771 8.31257 17.1967 5.57995 16.8585 2.82795C16.8223 2.47751 16.7151 2.13811 16.5435 1.83045C16.3719 1.52279 16.1395 1.25332 15.8604 1.03845C15.5814 0.823579 15.2615 0.667818 14.9203 0.580659C14.579 0.493499 14.2237 0.476769 13.8758 0.531485H2.82663C2.37055 0.572679 1.94361 0.773527 1.62099 1.09867C1.29837 1.42381 1.10075 1.8524 1.06291 2.30898C0.349646 12.2863 5.91313 22.9642 7.04139 25.0142V25.092L7.19701 25.3904C11.2358 32.3985 17.0512 38.2165 24.0561 42.2572L24.6267 42.5815C27.2204 43.9568 37.5303 49.1466 47.1659 48.433C47.6269 48.401 48.0615 48.2059 48.3917 47.8826C48.722 47.5592 48.9265 47.1289 48.9685 46.6685V35.6272C49.0232 35.2792 49.0065 34.9237 48.9194 34.5823C48.8323 34.2409 48.6766 33.9209 48.4618 33.6417C48.247 33.3625 47.9777 33.13 47.6702 32.9583C47.3626 32.7866 47.0234 32.6794 46.6731 32.6431Z" fill="#0B0127" stroke="#0B0127" stroke-linecap="round" stroke-linejoin="round"/>
</svg>
