<svg width="21" height="21" viewBox="0 0 21 21" fill="none" xmlns="http://www.w3.org/2000/svg">
<path d="M19.0789 13.7233C17.9918 13.5891 16.9124 13.3988 15.8449 13.1533C15.5843 13.0661 15.3056 13.0478 15.0358 13.0999C14.766 13.1521 14.5143 13.2731 14.3049 13.4511C14.0328 13.7285 13.2474 14.504 12.4312 15.3051C9.50688 13.8669 7.14186 11.499 5.70653 8.57221C6.5022 7.75564 7.24654 6.97501 7.54941 6.70282C7.72737 6.49336 7.84828 6.24148 7.90044 5.97157C7.9526 5.70166 7.93424 5.42284 7.84714 5.16211C7.60137 4.09248 7.41118 3.01082 7.27734 1.92148C7.263 1.78276 7.22058 1.64842 7.15265 1.52664C7.08473 1.40486 6.99273 1.29819 6.88226 1.21314C6.77179 1.12808 6.64516 1.06643 6.5101 1.03193C6.37504 0.997427 6.23437 0.990804 6.09667 1.01246H1.72304C1.54251 1.02877 1.37351 1.10827 1.24581 1.23697C1.1181 1.36568 1.03988 1.53532 1.0249 1.71605C0.742568 5.66541 2.94478 9.89209 3.39138 10.7035V10.7343L3.45298 10.8525C5.05169 13.6265 7.3536 15.9294 10.1264 17.5289V17.5289L10.3522 17.6573C11.3789 18.2017 15.4599 20.2559 19.274 19.9735C19.4565 19.9608 19.6285 19.8836 19.7592 19.7556C19.89 19.6276 19.9709 19.4573 19.9875 19.275V14.9045C20.0092 14.7668 20.0026 14.626 19.9681 14.4909C19.9336 14.3558 19.872 14.2291 19.787 14.1186C19.7019 14.0081 19.5953 13.916 19.4736 13.8481C19.3519 13.7801 19.2176 13.7377 19.0789 13.7233Z" stroke="#0B0127" stroke-linecap="round" stroke-linejoin="round"/>
</svg>
