<svg width="18" height="33" viewBox="0 0 18 33" fill="none" xmlns="http://www.w3.org/2000/svg">
<path d="M15.6792 0.391178L0.418049 15.5049C0.150011 15.7704 0 16.1264 0 16.4972C0 16.8679 0.150011 17.2239 0.418049 17.4894L15.6792 32.6088C15.804 32.7326 15.9533 32.831 16.1182 32.8982C16.2831 32.9654 16.4603 33 16.6392 33C16.8182 33 16.9954 32.9654 17.1603 32.8982C17.3252 32.831 17.4745 32.7326 17.5993 32.6088C17.8562 32.3549 18 32.0141 18 31.6592C18 31.3043 17.8562 30.9635 17.5993 30.7097L3.24822 16.4972L17.5993 2.2875C17.8553 2.03375 17.9986 1.69355 17.9986 1.33934C17.9986 0.985136 17.8553 0.644928 17.5993 0.391178C17.4745 0.267381 17.3252 0.168986 17.1603 0.1018C16.9954 0.0346144 16.8182 0 16.6392 0C16.4603 0 16.2831 0.0346144 16.1182 0.1018C15.9533 0.168986 15.804 0.267381 15.6792 0.391178Z" fill="black" fill-opacity="0.5"/>
</svg>
