<svg width="18" height="33" viewBox="0 0 18 33" fill="none" xmlns="http://www.w3.org/2000/svg">
<path d="M0.40068 0.388335C0.143808 0.642214 0 0.983027 0 1.33792C0 1.69281 0.143808 2.03362 0.40068 2.2875L14.7518 16.5L0.40068 30.7097C0.143808 30.9635 0 31.3043 0 31.6592C0 32.0141 0.143808 32.3549 0.40068 32.6088C0.525537 32.7326 0.674819 32.831 0.839715 32.8982C1.00461 32.9654 1.18178 33 1.36076 33C1.53974 33 1.7169 32.9654 1.8818 32.8982C2.0467 32.831 2.19598 32.7326 2.32084 32.6088L17.5819 17.4922C17.85 17.2268 18 16.8707 18 16.5C18 16.1293 17.85 15.7732 17.5819 15.5078L2.32084 0.391178C2.19598 0.267381 2.0467 0.168986 1.8818 0.1018C1.7169 0.0346144 1.53974 0 1.36076 0C1.18178 0 1.00461 0.0346144 0.839715 0.1018C0.674819 0.168986 0.525537 0.267381 0.40068 0.391178V0.388335Z" fill="black" fill-opacity="0.5"/>
</svg>
