<svg width="62" height="37" viewBox="0 0 62 37" fill="none" xmlns="http://www.w3.org/2000/svg">
<path d="M13.5948 28.8418C11.851 28.8418 10.2472 28.562 8.78333 28.0022C7.31944 27.421 6.04931 26.6137 4.97292 25.5804C3.89653 24.5255 3.05694 23.2984 2.45417 21.8991C1.85139 20.4998 1.55 18.9606 1.55 17.2814C1.55 15.6022 1.85139 14.063 2.45417 12.6637C3.05694 11.2644 3.89653 10.0481 4.97292 9.01475C6.07083 7.95989 7.35174 7.15259 8.81562 6.59287C10.2795 6.01162 11.8941 5.721 13.6594 5.721C15.4462 5.721 17.0823 6.01162 18.5677 6.59287C20.0531 7.17412 21.3125 8.046 22.3458 9.2085L20.3438 11.2106C19.4181 10.3064 18.4062 9.64982 17.3083 9.24079C16.2319 8.81023 15.0587 8.59496 13.7885 8.59496C12.4969 8.59496 11.2913 8.81023 10.1719 9.24079C9.07396 9.67134 8.11597 10.2741 7.29792 11.0491C6.50139 11.8241 5.87708 12.7498 5.425 13.8262C4.99444 14.8811 4.77917 16.0328 4.77917 17.2814C4.77917 18.5085 4.99444 19.6602 5.425 20.7366C5.87708 21.7915 6.50139 22.7172 7.29792 23.5137C8.11597 24.2887 9.07396 24.8915 10.1719 25.322C11.2698 25.7526 12.4646 25.9679 13.7562 25.9679C14.9618 25.9679 16.1135 25.7849 17.2115 25.4189C18.3309 25.0314 19.3642 24.3963 20.3115 23.5137L22.1521 25.9679C21.0326 26.9151 19.7194 27.6363 18.2125 28.1314C16.7271 28.605 15.1878 28.8418 13.5948 28.8418ZM19.0521 25.5481V17.1522H22.1521V25.9679L19.0521 25.5481Z" fill="white"/>
<path d="M49.3094 5.97933H52.5385V28.5835H49.3094V5.97933ZM36.3281 28.5835H33.0989V5.97933H36.3281V28.5835ZM49.6 18.5085H36.0052V15.6991H49.6V18.5085Z" fill="white"/>
<path d="M25.8333 18.0833C25.8333 16.6566 26.9899 15.5 28.4166 15.5V36.1667H25.8333V18.0833Z" fill="#F3CE0C"/>
<rect x="59.4167" y="2.5835" width="2.58333" height="31" fill="#F3CE0C"/>
<path d="M28.4167 33.5835H62C62 35.0102 60.8434 36.1668 59.4167 36.1668H28.4167V33.5835Z" fill="#0D36C8"/>
<path d="M31 2.58333C31 1.1566 32.1566 0 33.5833 0H62V2.58333H31Z" fill="#0D36C8"/>
</svg>
