<svg width="100" height="100" viewBox="0 0 100 100" fill="none" xmlns="http://www.w3.org/2000/svg">
<path d="M90.9 20.7625C90.6389 19.9601 90.1308 19.2608 89.4483 18.7646C88.7658 18.2684 87.9438 18.0008 87.1 18H78V4C78 1.7875 76.2125 0 74 0H26C23.7875 0 22 1.7875 22 4V18H12.9C12.0557 17.9989 11.2329 18.2658 10.55 18.7622C9.86707 19.2587 9.35937 19.959 9.1 20.7625L0 48.75V96C0 98.2125 1.7875 100 4 100H96C98.2125 100 100 98.2125 100 96V48.75L90.9 20.7625ZM31 9H69V18H31V9ZM91 91H9V50.175L16.5375 27H83.4625L91 50.175V91ZM67.5 57.5H54V44C54 43.45 53.55 43 53 43H47C46.45 43 46 43.45 46 44V57.5H32.5C31.95 57.5 31.5 57.95 31.5 58.5V64.5C31.5 65.05 31.95 65.5 32.5 65.5H46V79C46 79.55 46.45 80 47 80H53C53.55 80 54 79.55 54 79V65.5H67.5C68.05 65.5 68.5 65.05 68.5 64.5V58.5C68.5 57.95 68.05 57.5 67.5 57.5Z" fill="#0B0127"/>
</svg>
