<svg width="100" height="100" viewBox="0 0 100 100" fill="none" xmlns="http://www.w3.org/2000/svg">
<path d="M42.955 1.40724C47.4731 -0.469079 52.5269 -0.469079 57.045 1.40724L94.535 16.9766C96.1498 17.6466 97.5326 18.7951 98.5063 20.2751C99.4799 21.755 100 23.499 100 25.2837V74.7215C99.999 76.5052 99.4784 78.2481 98.5049 79.727C97.5313 81.206 96.149 82.3537 94.535 83.0234L57.045 98.5928C52.5269 100.469 47.4731 100.469 42.955 98.5928L5.465 83.0234C3.85016 82.3534 2.46737 81.2049 1.49374 79.7249C0.520112 78.245 -1.01276e-05 76.501 1.47903e-10 74.7163V25.2888C-1.01276e-05 23.5042 0.520112 21.7602 1.49374 20.2802C2.46737 18.8002 3.85016 17.6517 5.465 16.9817L42.955 1.41236V1.40724ZM54.225 8.52612C51.5153 7.40144 48.4847 7.40144 45.775 8.52612L36.2 12.5055L73.835 27.4961L87.18 22.221L54.22 8.53124L54.225 8.52612ZM63.455 31.5985L26.075 16.7051L12.95 22.1544L50.005 36.9146L63.455 31.5985ZM7.5 74.7215C7.50065 74.9757 7.57518 75.224 7.71409 75.4347C7.853 75.6454 8.05 75.8089 8.28 75.9045L45.775 91.4739C45.93 91.5405 46.09 91.6019 46.25 91.6583V43.6647L7.5 28.2285V74.7215ZM54.225 91.4739L91.72 75.9045C91.9508 75.8086 92.1483 75.6443 92.2873 75.4326C92.4263 75.2209 92.5003 74.9715 92.5 74.7163V28.3514L53.75 43.6749V91.6634C53.9097 91.6057 54.0681 91.5442 54.225 91.479V91.4739Z" fill="#0B0127"/>
</svg>
