<svg width="106" height="100" viewBox="0 0 106 100" fill="none" xmlns="http://www.w3.org/2000/svg">
<path fill-rule="evenodd" clip-rule="evenodd" d="M41.6591 0H64.2292C76.6878 0 79.5682 19.9635 83.1708 30.0017H75.914L75.7506 36.7606C76.6878 37.0738 77.3671 37.6305 77.7798 38.4743C78.5106 39.9704 78.1925 42.2582 76.748 45.5811C76.7308 45.6246 76.705 45.6681 76.6792 45.7116L71.2796 54.7147C67.9521 60.2557 64.4355 64.2049 60.8243 66.5101C58.3566 68.0759 55.846 68.8848 53.3009 68.9196C50.7559 68.9544 48.2195 68.2063 45.7174 66.6667C42.218 64.5181 38.7787 60.8125 35.477 55.4889L30.7395 47.8601C29.0285 45.2766 28.1342 42.928 28.0827 41.0056C28.0569 40.1183 28.203 39.318 28.5298 38.6134C28.8651 37.8827 29.381 37.2651 30.0774 36.7954C30.387 36.5866 30.7309 36.404 31.1178 36.2474C30.9716 34.3424 30.8684 32.1851 30.8169 29.993H22.8378C26.3888 19.9809 29.2262 0 41.6591 0ZM34.9955 68.128C40.0083 83.055 66.2927 83.603 71.0045 68.128C76.5503 73.1733 90.2815 74.191 96.3861 77.627C98.3121 78.7143 100.058 80.1061 101.459 81.9763C103.591 84.8208 104.89 88.5351 105.251 93.2498L105.827 100H0.173157L0.749231 93.2498C1.10175 88.5351 2.40867 84.8208 4.541 81.9763C5.9425 80.1061 7.68791 78.7143 9.61389 77.627C15.7186 74.1823 29.4498 73.1733 34.9955 68.128ZM72.3286 38.7526C71.8643 38.8222 71.3914 38.8309 70.9099 38.7961L72.492 30.6889C69.3278 30.6454 66.4905 30.4454 63.8336 30.0104H34.5914L35.6318 38.3351C34.729 38.5177 33.8606 38.4308 33.0266 38.0741C32.3129 38.1785 31.7369 38.3786 31.2984 38.6743C30.9544 38.9092 30.6965 39.2136 30.5331 39.5703C30.3526 39.9617 30.2752 40.4228 30.2924 40.9621C30.3354 42.4669 31.1006 44.4155 32.5881 46.651L37.3514 54.3058C40.4725 59.325 43.6625 62.7958 46.8696 64.7617C49.0105 66.0752 51.16 66.7189 53.2837 66.6841C55.4075 66.658 57.5398 65.9621 59.655 64.6138C62.9824 62.5 66.2583 58.7944 69.3966 53.5578L74.7447 44.6416C75.8882 41.9972 76.2235 40.3358 75.8022 39.4833C75.4669 38.7874 74.3492 38.596 72.5349 38.7613C72.4576 38.7613 72.3974 38.7613 72.3286 38.7526Z" fill="#0B0127"/>
</svg>
