<svg width="62" height="37" viewBox="0 0 62 37" fill="none" xmlns="http://www.w3.org/2000/svg">
<path d="M13.5948 28.8417C11.851 28.8417 10.2472 28.5618 8.78333 28.0021C7.31944 27.4208 6.04931 26.6136 4.97292 25.5802C3.89653 24.5254 3.05694 23.2983 2.45417 21.899C1.85139 20.4997 1.55 18.9604 1.55 17.2813C1.55 15.6021 1.85139 14.0629 2.45417 12.6636C3.05694 11.2642 3.89653 10.0479 4.97292 9.01459C6.07083 7.95973 7.35174 7.15244 8.81562 6.59272C10.2795 6.01147 11.8941 5.72085 13.6594 5.72085C15.4462 5.72085 17.0823 6.01147 18.5677 6.59272C20.0531 7.17397 21.3125 8.04584 22.3458 9.20834L20.3438 11.2104C19.4181 10.3063 18.4062 9.64966 17.3083 9.24064C16.2319 8.81008 15.0587 8.5948 13.7885 8.5948C12.4969 8.5948 11.2913 8.81008 10.1719 9.24064C9.07396 9.67119 8.11597 10.274 7.29792 11.049C6.50139 11.824 5.87708 12.7497 5.425 13.8261C4.99444 14.8809 4.77917 16.0326 4.77917 17.2813C4.77917 18.5083 4.99444 19.6601 5.425 20.7365C5.87708 21.7913 6.50139 22.717 7.29792 23.5136C8.11597 24.2886 9.07396 24.8913 10.1719 25.3219C11.2698 25.7524 12.4646 25.9677 13.7562 25.9677C14.9618 25.9677 16.1135 25.7847 17.2115 25.4188C18.3309 25.0313 19.3642 24.3962 20.3115 23.5136L22.1521 25.9677C21.0326 26.9149 19.7194 27.6361 18.2125 28.1313C16.7271 28.6049 15.1878 28.8417 13.5948 28.8417ZM19.0521 25.5479V17.1521H22.1521V25.9677L19.0521 25.5479Z" fill="black"/>
<path d="M49.3094 5.97918H52.5385V28.5833H49.3094V5.97918ZM36.3281 28.5833H33.0989V5.97918H36.3281V28.5833ZM49.6 18.5083H36.0052V15.699H49.6V18.5083Z" fill="black"/>
<path d="M25.8333 18.0834C25.8333 16.6566 26.9899 15.5 28.4166 15.5V36.1667H25.8333V18.0834Z" fill="#F3CE0C"/>
<rect x="59.4167" y="2.58334" width="2.58333" height="31" fill="#F3CE0C"/>
<path d="M28.4167 33.5833H62C62 35.0101 60.8434 36.1667 59.4167 36.1667H28.4167V33.5833Z" fill="#0D36C8"/>
<path d="M31 2.58336C31 1.15663 32.1566 3.05176e-05 33.5833 3.05176e-05H62V2.58336H31Z" fill="#0D36C8"/>
</svg>
